/* XPM */
static char *bxvv2_rbh57[] = {
/* columns rows colors chars-per-pixel */
"42 42 3 1 ",
"  c None",
". c white",
"X c black",
/* pixels */
"                                          ",
"                                          ",
"                                          ",
"                                          ",
"                                          ",
"                                          ",
"                                          ",
"                                          ",
"                                          ",
"                     X                    ",
"                   X..X                   ",
"                  X....X                  ",
"                 X......X                 ",
"                X........X                ",
"               X..........X               ",
"              X............X              ",
"             X..............X             ",
"            X................X            ",
"           X..................X           ",
"          X....................X          ",
"         X......................X         ",
"        X...........XX...........X        ",
"       X...........X  X...........X       ",
"      X...........X    X...........X      ",
"     X...........X      X...........X     ",
"    X...........X        X...........X    ",
"   X...........X          X...........X   ",
"   X..........X            X..........X   ",
"   X.........X              X.........X   ",
"    X.......X                X.......X    ",
"     X.....X                  X.....X     ",
"      X...X                    X...X      ",
"       X.X                      X.X       ",
"        X                        X        ",
"                                          ",
"                                          ",
"                                          ",
"                                          ",
"                                          ",
"                                          ",
"                                          ",
"                                          "
};
